# xmcd
# Track frame offsets:
# 150
# 12200
# 23405
# 33351
# 46196
# 58489
# 71425
# 80963
# 93089
# 108254
#
# Disc length: 1579 seconds
# Revision: 0
# Processed by: cddbd v1.5.1PL0 Copyright (c) Steve Scherf et al.
# Submitted via: VisiTrax 2.9.10.228 - For more info visit www.synapsa.com
#
DISCID=7506290a
DTITLE=The Tennessee Three - We still miss someone
DYEAR=2005
DGENRE=
TTITLE0=My baby she walks all over
TTITLE1=Ring of fire
TTITLE2=Everybody is trying to be my baby
TTITLE3=I still miss someone
TTITLE4=Folsom prison blues
TTITLE5=Mad dog
TTITLE6=I got stripes
TTITLE7=I walk the line
TTITLE8=Drum time
TTITLE9=There you go
EXTD=
EXTT0=
EXTT1=
EXTT2=
EXTT3=
EXTT4=
EXTT5=
EXTT6=
EXTT7=
EXTT8=
EXTT9=
PLAYORDER=
